HIERARCHY
ROOT Hips
{
    OFFSET 0.000000 0.000000 0.000000
    CHANNELS 6 Xposition Yposition Zposition Zrotation Xrotation Yrotation
    JOINT Spine
    {
        OFFSET -0.000000 8.172037 0.000000
        CHANNELS 3 Zrotation Xrotation Yrotation
        JOINT Spine1
        {
            OFFSET -0.000000 18.392342 0.000000
            CHANNELS 3 Zrotation Xrotation Yrotation
            JOINT Neck
            {
                OFFSET -0.000000 18.316809 1.665164
                CHANNELS 3 Zrotation Xrotation Yrotation
                JOINT Head
                {
                    OFFSET -0.000000 13.952258 -1.993180
                    CHANNELS 3 Zrotation Xrotation Yrotation
                    End Site
                    {
                        OFFSET -0.000000 24.914745 0.000000
                    }
                }
            }
            JOINT LeftShoulder
            {
                OFFSET 4.035833 16.062790 -0.310290
                CHANNELS 3 Zrotation Xrotation Yrotation
                JOINT LeftArm
                {
                    OFFSET 12.395579 0.000000 0.000000
                    CHANNELS 3 Zrotation Xrotation Yrotation
                    JOINT LeftForeArm
                    {
                        OFFSET 26.414022 0.000000 0.000000
                        CHANNELS 3 Zrotation Xrotation Yrotation
                        JOINT LeftHand
                        {
                            OFFSET 28.641636 0.000000 0.000000
                            CHANNELS 3 Zrotation Xrotation Yrotation
                            End Site
                            {
                                OFFSET 14.948848 0.000000 0.000000
                            }
                        }
                    }
                }
            }
            JOINT RightShoulder
            {
                OFFSET -3.919767 16.062790 -0.310290
                CHANNELS 3 Zrotation Xrotation Yrotation
                JOINT RightArm
                {
                    OFFSET -12.395579 0.000000 0.000000
                    CHANNELS 3 Zrotation Xrotation Yrotation
                    JOINT RightForeArm
                    {
                        OFFSET -26.414022 0.000000 0.000000
                        CHANNELS 3 Zrotation Xrotation Yrotation
                        JOINT RightHand
                        {
                            OFFSET -28.641636 0.000000 0.000000
                            CHANNELS 3 Zrotation Xrotation Yrotation
                            End Site
                            {
                                OFFSET -14.948848 0.000000 0.000000
                            }
                        }
                    }
                }
            }
        }
    }
    JOINT LeftUpLeg
    {
        OFFSET 9.965899 0.000000 0.000000
        CHANNELS 3 Zrotation Xrotation Yrotation
        JOINT LeftLeg
        {
            OFFSET -0.000000 -49.671295 0.000000
            CHANNELS 3 Zrotation Xrotation Yrotation
            JOINT LeftFoot
            {
                OFFSET -0.000000 -36.155865 0.000000
                CHANNELS 3 Zrotation Xrotation Yrotation
                JOINT LeftToeBase
                {
                    OFFSET -0.000000 -6.477834 14.948848
                    CHANNELS 3 Zrotation Xrotation Yrotation
                    End Site
                    {
                        OFFSET -0.000000 0.000000 3.986359
                    }
                }
            }
        }
    }
    JOINT RightUpLeg
    {
        OFFSET -9.965899 0.000000 0.000000
        CHANNELS 3 Zrotation Xrotation Yrotation
        JOINT RightLeg
        {
            OFFSET -0.000000 -49.671295 0.000000
            CHANNELS 3 Zrotation Xrotation Yrotation
            JOINT RightFoot
            {
                OFFSET -0.000000 -36.155865 0.000000
                CHANNELS 3 Zrotation Xrotation Yrotation
                JOINT RightToeBase
                {
                    OFFSET -0.000000 -6.477834 14.948848
                    CHANNELS 3 Zrotation Xrotation Yrotation
                    End Site
                    {
                        OFFSET -0.000000 0.000000 3.986359
                    }
                }
            }
        }
    }
}
MOTION
Frames:    5
Frame Time:    0.010000
-16.735973    90.137413    -13.882424    -1.395978    -0.451811    175.889679    -4.705190    -2.250381    0.470054    -0.259727    -5.539567    0.549890    9.805540    23.676908    -0.130945    -4.736036    10.283374    0.313986    16.240057    -3.659966    -15.206795    -47.884678    19.266890    -75.725395    5.513771    -24.910309    -22.710274    18.483946    -23.165569    4.928606    -2.389482    -6.761111    21.385273    44.912937    3.191784    63.918678    -6.066070    -23.486034    25.377129    -8.153056    -21.263105    -14.473140    -4.413038    -13.333477    -0.691241    -2.024177    47.651443    -11.131980    9.518830    -23.103813    3.358025    0.000000    0.000000    0.000000    -4.831846    -16.397678    0.625413    14.610341    77.116989    3.071879    -20.269117    -24.875511    -8.289263    0.000000    0.000000    0.000000    
-16.747169    90.460983    -15.824514    -1.342803    -0.314006    175.789291    -4.904604    -2.188840    0.291516    -0.026797    -5.382027    0.384012    10.096066    23.409065    -0.005075    -5.115979    10.501607    0.428951    16.378258    -3.633810    -15.137131    -47.870033    19.564152    -75.710594    5.841779    -24.718952    -22.754562    17.986198    -22.964880    4.681844    -2.366258    -6.764189    21.171299    45.060940    3.442285    63.912884    -6.117829    -23.640709    25.577724    -8.049517    -21.398302    -14.667153    -4.548337    -11.771646    -0.375206    -1.442638    47.412525    -12.006186    9.407209    -22.903582    4.326643    0.000000    0.000000    0.000000    -4.581255    -17.958902    0.397000    13.019795    75.516335    5.499399    -19.660570    -24.979380    -8.557802    0.000000    0.000000    0.000000    
-16.748840    90.848549    -17.774521    -1.266389    -0.142686    175.623779    -5.076531    -2.260373    0.131348    0.287672    -4.994944    0.244117    10.174063    23.296259    0.213863    -5.405492    10.481645    0.634993    16.241394    -3.678728    -15.193455    -48.164444    19.649189    -75.378906    5.560484    -24.757999    -23.040741    18.478956    -23.040375    4.575085    -2.371800    -6.723358    21.101145    45.236908    3.444399    63.993233    -5.597329    -23.985222    25.833401    -8.948769    -21.711098    -15.033667    -4.666283    -10.255621    0.288116    -0.671585    47.023861    -11.724729    9.112396    -21.317469    2.518430    0.000000    0.000000    0.000000    -4.264785    -19.409199    -0.203112    10.330379    73.651794    8.651255    -16.665314    -25.692560    -8.781533    0.000000    0.000000    0.000000    
-16.753614    91.282082    -19.699070    -1.237924    -0.051205    175.488739    -5.239439    -2.315673    -0.071686    0.498433    -4.741316    0.056634    10.502759    23.262793    0.451989    -6.015180    10.386955    0.865407    16.264668    -3.624423    -15.124220    -48.378292    19.914366    -75.185440    5.586005    -24.916265    -23.253376    18.736752    -23.164915    4.650135    -2.208639    -6.760230    21.198700    45.229343    3.695221    63.904156    -5.757991    -24.243967    25.761320    -8.559189    -21.982471    -15.161232    -4.519783    -8.931368    0.648061    -1.284077    46.756264    -11.667952    10.768700    -19.282839    4.063634    0.000000    0.000000    0.000000    -4.020880    -20.854685    -0.439057    9.347137    71.330963    9.179469    -19.884880    -23.197876    -7.058293    0.000000    0.000000    0.000000    
-16.801420    91.743622    -21.650549    -1.292361    0.059921    175.379303    -5.274309    -2.500828    -0.307496    0.614343    -4.691417    -0.167433    10.401752    24.002766    0.617269    -6.276684    10.039731    1.073752    15.754395    -3.257751    -15.625847    -48.409542    19.811403    -74.401405    5.674692    -24.825657    -23.362125    18.576807    -23.100786    4.360923    -2.101855    -6.168597    21.722708    44.959930    3.661752    63.773720    -5.959802    -24.449186    25.578568    -8.271123    -22.191793    -15.183270    -4.532382    -7.597509    1.401384    -1.438574    46.029774    -7.547782    9.009568    -17.783440    0.134766    0.000000    0.000000    0.000000    -3.939309    -22.050835    -0.510933    9.463593    68.688538    9.987573    -18.297651    -22.996727    -7.694645    0.000000    0.000000    0.000000    
